<svg xmlns="http://www.w3.org/2000/svg" id="fediverse-color" width="742.753" height="742.753" viewBox="0 0 196.52 196.52"><path d="M47.924 72.796a18.23 18.23 0 0 1-7.796 7.76l42.798 42.965 10.318-5.23zm56.452 56.67l-10.318 5.23 21.686 21.77a18.23 18.23 0 0 1 7.797-7.761z" fill="#a730b8"/><path d="M153.894 89.797l-24.23 12.28 1.786 11.427 27.415-13.894a18.23 18.23 0 0 1-4.972-9.812zM115.6 109.204L58.3 138.238a18.23 18.23 0 0 1 4.973 9.813l54.103-27.42z" fill="#5496be"/><path d="M97.175 37.686L69.53 91.654l8.162 8.193 29.27-57.14a18.23 18.23 0 0 1-9.787-5.022zM62.34 105.7L48.34 133.025a18.23 18.23 0 0 1 9.786 5.021l12.378-24.164z" fill="#ce3d1a"/><path d="M39.89 80.676a18.23 18.23 0 0 1-9.106 1.904l-1.76-.184 8.176 52.298a18.23 18.23 0 0 1 9.106-1.904l1.76.184z" fill="#d0188f"/><path d="M63.326 148.3a18.23 18.23 0 0 1-1.732 10.863l52.29 8.39a18.23 18.23 0 0 1 1.732-10.863z" fill="#5b36e9"/><path d="M159.05 99.8l-24.135 47.117a18.23 18.23 0 0 1 9.788 5.022l24.134-47.117a18.23 18.23 0 0 1-9.788-5.023z" fill="#30b873"/><path d="M126.133 33.16a18.23 18.23 0 0 1-7.797 7.761l37.376 37.52a18.23 18.23 0 0 1 7.797-7.761z" fill="#ebe305"/><path d="M92.02 27.683L44.77 51.628a18.23 18.23 0 0 1 4.972 9.812L97 37.495a18.23 18.23 0 0 1-4.972-9.811z" fill="#f47601"/><path d="M118.25 40.964a18.23 18.23 0 0 1-9.256 1.98l-1.595-.167 4.185 26.8 11.42 1.832zm-4.233 44.193l9.896 63.363a18.23 18.23 0 0 1 10.88-1.628l-9.355-59.903z" fill="#57c115"/><path d="M49.776 61.64a18.23 18.23 0 0 1 .201 3.729 18.23 18.23 0 0 1-1.894 7.139l26.82 4.308 5.272-10.294zm45.968 7.382l-5.272 10.295 63.37 10.178a18.23 18.23 0 0 1-.184-3.63 18.23 18.23 0 0 1 1.945-7.23z" fill="#dbb210"/><g transform="matrix(.99852 .054393 -.054393 .99852 6.679 -32.496)" class="B"><circle cx="106.266" cy="51.536" r="16.571" fill="#ffca00"/><circle cx="171.428" cy="110.193" r="16.571" fill="#64ff00"/><circle cx="135.764" cy="190.277" r="16.571" fill="#00a3ff"/><circle cx="48.559" cy="181.114" r="16.571" fill="#9500ff"/><circle cx="30.329" cy="95.367" r="16.571" fill="red"/></g></svg>
