<svg xmlns="http://www.w3.org/2000/svg" id="fediverse" width="742.753" height="742.753" viewBox="0 0 196.52 196.52" ><path d="M47.924 72.796a18.23 18.23 0 0 1-7.796 7.76l42.798 42.965 10.318-5.23-45.32-45.496zm56.452 56.67l-10.318 5.23 21.686 21.77a18.23 18.23 0 0 1 7.797-7.761l-19.165-19.24zm49.518-39.67l-24.23 12.28 1.786 11.427L158.865 99.6a18.23 18.23 0 0 1-4.972-9.812zM115.6 109.204l-57.3 29.034a18.23 18.23 0 0 1 4.973 9.813l54.103-27.42-1.786-11.428zM97.175 37.686L69.53 91.654l8.162 8.193 29.27-57.14a18.23 18.23 0 0 1-9.787-5.022zM62.34 105.7l-14 27.325a18.23 18.23 0 0 1 9.786 5.021l12.378-24.164-8.16-8.193zM39.9 80.676a18.23 18.23 0 0 1-9.106 1.904l-1.76-.184 8.176 52.298a18.23 18.23 0 0 1 9.106-1.904l1.76.184-8.175-52.298zM63.326 148.3a18.23 18.23 0 0 1-1.732 10.863l52.3 8.4a18.23 18.23 0 0 1 1.732-10.863l-52.3-8.4zm95.724-48.5l-24.135 47.117a18.23 18.23 0 0 1 9.788 5.022l24.134-47.117a18.23 18.23 0 0 1-9.788-5.023zm-32.917-66.64a18.23 18.23 0 0 1-7.797 7.761l37.376 37.52a18.23 18.23 0 0 1 7.797-7.761l-37.376-37.52zM92.02 27.683L44.77 51.628a18.23 18.23 0 0 1 4.972 9.812L97 37.495a18.23 18.23 0 0 1-4.972-9.811zm26.23 13.28a18.23 18.23 0 0 1-9.256 1.98l-1.595-.167 4.185 26.8 11.42 1.832-4.754-30.445zm-4.233 44.193l9.896 63.363a18.23 18.23 0 0 1 10.88-1.628l-9.355-59.903-11.42-1.832zM49.776 61.64a18.23 18.23 0 0 1 .201 3.729 18.23 18.23 0 0 1-1.894 7.139l26.82 4.308 5.272-10.294-30.398-4.882zm45.968 7.382l-5.272 10.295 63.37 10.178a18.23 18.23 0 0 1-.184-3.63 18.23 18.23 0 0 1 1.945-7.23l-59.86-9.614z"/><g transform="matrix(.99852 .054393 -.054393 .99852 6.679 -32.496)" class="B"><circle cx="106.266" cy="51.536" r="16.571"/><circle cx="171.428" cy="110.193" r="16.571"/><circle cx="135.764" cy="190.277" r="16.571"/><circle cx="48.559" cy="181.114" r="16.571"/><circle cx="30.329" cy="95.367" r="16.571"/></g></svg>
